trial_5_ID.mot
nRows=6
nColumns=42

name trial_5_ID.mot
datacolumns 42
datarows 6
range 7.5100000000 7.5600000000
endheader
time	pelvis_tilt_moment	pelvis_list_moment	pelvis_rotation_moment	pelvis_tx_force	pelvis_ty_force	pelvis_tz_force	hip_flexion_r_moment	hip_adduction_r_moment	hip_rotation_r_moment	knee_angle_r_moment	knee_vv_r_moment	knee_rot_r_moment	ankle_angle_r_moment	subtalar_angle_r_moment	mtp_angle_r_moment	hip_flexion_l_moment	hip_adduction_l_moment	hip_rotation_l_moment	knee_angle_l_moment	knee_vv_l_moment	knee_rot_l_moment	ankle_angle_l_moment	subtalar_angle_l_moment	mtp_angle_l_moment	lumbar_extension_moment	lumbar_bending_moment	lumbar_rotation_moment	arm_flex_r_moment	arm_add_r_moment	arm_rot_r_moment	elbow_flex_r_moment	pro_sup_r_moment	wrist_flex_r_moment	wrist_dev_r_moment	arm_flex_l_moment	arm_add_l_moment	arm_rot_l_moment	elbow_flex_l_moment	pro_sup_l_moment	wrist_flex_l_moment	wrist_dev_l_moment
        7.5100000000	        6.7524412500	       11.8549733100	        2.7971969800	        2.4417337400	        6.0117378200	       -7.4249336700	        7.2038754900	       -1.5471917300	       -0.6522667100	        2.1382552300	        0.4380119800	        0.0379098300	        0.5937433200	       -0.0391258200	        0.0242510400	       -5.9354190800	      -55.6110758300	        3.2272927500	        9.7719407100	       27.7835631900	        1.5877902900	       -5.6148990200	        4.9325705800	        0.0284287300	       21.6246198600	        3.2245734000	        4.3033053000	        0.2953592700	       -2.5268112000	       -0.1076536900	       -0.3711652100	       -0.0185835600	       -0.0607929200	        0.0043501700	       -1.0489810800	       -0.9573310200	        0.0112106400	        0.0332244700	       -0.0007879100	        0.0332615000	        0.0147071600	
        7.5200000000	        6.3005353300	       10.7216276400	        2.7400972700	        2.3661143900	        5.0703973100	       -7.5470640100	        6.6677678900	       -1.8366847600	       -0.4142397400	        1.8053443100	        0.1789069300	        0.0184285600	        0.5436558900	       -0.0516158500	        0.0216816700	       -4.9591342800	      -54.6437285500	        2.9293767600	        8.7694835100	       27.1676081400	        1.5806515300	       -6.4278434600	        5.0217245400	        0.0282118300	       20.4787649700	        2.2905703200	        4.2936752500	        0.4120899100	       -2.4288091400	       -0.1062377800	       -0.3411551300	       -0.0193978900	       -0.0626076300	        0.0027532100	       -1.0568015700	       -0.9651331300	        0.0107038600	        0.0351409200	       -0.0014006600	        0.0321059800	        0.0144867000	
        7.5300000000	        5.8417506200	        9.4627990100	        2.7241188800	        3.5507725500	        3.2094858400	       -7.6634111500	        6.3894830200	       -2.0293425900	       -0.1764081100	        1.5558042200	       -0.0761199400	       -0.0028113700	        0.5327023200	       -0.0711167700	        0.0206774300	       -4.0735444700	      -53.6601005300	        2.6249709500	        7.6641560400	       26.5666183900	        1.5871242500	       -7.3557137800	        5.1083407300	        0.0280368900	       19.0339281400	        1.3283063900	        4.1825320200	        0.5363493000	       -2.3061138400	       -0.1064075000	       -0.2966508400	       -0.0206108200	       -0.0633472500	       -0.0005267500	       -1.0463424100	       -0.9700377600	        0.0146598700	        0.0330719700	       -0.0011220600	        0.0311208100	        0.0149461900	
        7.5400000000	        5.3007766000	        8.0952336900	        2.8033170100	        5.7043065400	        0.8996297800	       -7.5246860600	        6.3188613400	       -2.1911754600	        0.0919186000	        1.3608136200	       -0.3612442900	       -0.0266549700	        0.5557305900	       -0.0982097100	        0.0210487900	       -3.3012683400	      -52.6801710900	        2.3193715100	        6.4658780800	       25.9951064000	        1.6083754700	       -8.4015737600	        5.1929756800	        0.0279203400	       17.3817271900	        0.4162850900	        4.0252290400	        0.6604701600	       -2.1696417000	       -0.1073305300	       -0.2427287800	       -0.0219867800	       -0.0630614800	       -0.0049634100	       -1.0202275000	       -0.9713423700	        0.0234526800	        0.0273167100	        0.0000408300	        0.0305200400	        0.0162313400	
        7.5500000000	        4.6136274400	        6.6122407000	        3.0195136100	        8.4205177200	       -1.3746560400	       -6.8601516500	        6.3890911000	       -2.4080408400	        0.4232677400	        1.1886529800	       -0.7148349700	       -0.0541354200	        0.6071354000	       -0.1335449800	        0.0225858100	       -2.6526637600	      -51.7229237200	        2.0146386900	        5.1864190300	       25.4628071400	        1.6465019700	       -9.5687112000	        5.2774033500	        0.0278646500	       15.6255893000	       -0.3725510500	        3.8769240600	        0.7780944900	       -2.0316225600	       -0.1081356300	       -0.1848332900	       -0.0232904700	       -0.0619240900	       -0.0099853800	       -0.9817198800	       -0.9688852200	        0.0369192900	        0.0187461600	        0.0019804300	        0.0304538900	        0.0183504400	
        7.5600000000	        3.7083764100	        4.9953327600	        3.3801507600	       11.2036771000	       -3.1899643900	       -5.4679375300	        6.5029323300	       -2.7614377000	        0.8383527600	        1.0023534100	       -1.1652426800	       -0.0854081700	        0.6808155100	       -0.1770052300	        0.0250810100	       -2.1244196600	      -50.8069127700	        1.7100842300	        3.8388396300	       24.9750036100	        1.7040871700	      -10.8629445000	        5.3651411900	        0.0278609900	       13.8659083200	       -0.9860355400	        3.7824488400	        0.8844568200	       -1.9042800100	       -0.1080356400	       -0.1282704600	       -0.0243152300	       -0.0602108500	       -0.0150330300	       -0.9341355700	       -0.9623163100	        0.0544488500	        0.0088465900	        0.0045064700	        0.0310137600	        0.0211678000	
